<?xml version="1.0" encoding="utf-8"?>
<!-- Generator: Adobe Illustrator 26.3.1, SVG Export Plug-In . SVG Version: 6.00 Build 0)  -->
<svg version="1.1" id="Layer_1" xmlns="http://www.w3.org/2000/svg" xmlns:xlink="http://www.w3.org/1999/xlink" x="0px" y="0px"
	 viewBox="0 0 68.1 16.2" style="enable-background:new 0 0 68.1 16.2;" xml:space="preserve">
<style type="text/css">
	.st0{fill:#1D2043;}
	.st1{fill:#DF5646;}
</style>
<g>
	<path class="st0" d="M66.4,13.4c-0.9,0-1.7-0.8-1.7-1.7s0.8-1.7,1.7-1.7c0.9,0,1.7,0.8,1.7,1.7l0,0C68.1,12.7,67.4,13.4,66.4,13.4
		C66.4,13.5,66.4,13.5,66.4,13.4z M66.4,11c-0.4,0-0.7,0.3-0.7,0.7s0.3,0.7,0.7,0.7c0.4,0,0.7-0.3,0.7-0.7l0,0
		C67.1,11.4,66.8,11.1,66.4,11L66.4,11z"/>
</g>
<path class="st1" d="M1,2.4h3.2l2.6,4.3l2.6-4.3h3.2v11.1H9.7V7.1l-2.8,4.3H6.8L4,7.1v6.3H1V2.4z"/>
<path class="st1" d="M18.5,2.3h3l4.7,11.2h-3.3l-0.8-2h-4.3l-0.8,2h-3.2L18.5,2.3z M21.2,9.1L20,6l-1.2,3.1H21.2z"/>
<path class="st1" d="M30.5,9.3l-4.2-6.9h3.5l2.3,4l2.3-4h3.4l-4.2,6.9v4.2h-3.1C30.5,13.5,30.5,9.3,30.5,9.3z"/>
<path class="st1" d="M43.7,13.7c-0.8,0-1.5-0.1-2.1-0.3s-1.2-0.5-1.6-0.9c-0.4-0.4-0.8-0.9-1-1.6c-0.2-0.6-0.4-1.4-0.4-2.3V2.4h3.1
	v6.2c0,0.8,0.2,1.4,0.5,1.8c0.4,0.4,0.9,0.6,1.5,0.6s1.1-0.2,1.5-0.6c0.4-0.4,0.5-0.9,0.5-1.7V2.4h3.1v6.1c0,0.9-0.1,1.7-0.4,2.3
	s-0.6,1.2-1,1.6c-0.4,0.4-1,0.7-1.6,0.9C45.2,13.6,44.5,13.7,43.7,13.7z"/>
<path class="st1" d="M50.7,2.4H56c0.9,0,1.6,0.1,2.2,0.3c0.6,0.2,1.1,0.5,1.4,0.9c0.7,0.6,1,1.5,1,2.6l0,0c0,0.9-0.2,1.6-0.6,2.1
	c-0.4,0.6-1,1-1.7,1.3l2.6,3.9h-3.5l-2.2-3.4l0,0h-1.3v3.4h-3.1V2.4H50.7z M55.8,7.7c0.5,0,0.9-0.1,1.2-0.4c0.3-0.2,0.4-0.6,0.4-1
	l0,0c0-0.4-0.1-0.8-0.4-1C56.7,5.1,56.3,5,55.8,5h-2v2.7H55.8z"/>
</svg>
